<?xml version="1.0" encoding="UTF-8" standalone="no"?>
<!-- Created with Inkscape (http://www.inkscape.org/) -->

<svg
   version="1.1"
   id="svg2"
   width="2666.6667"
   height="2666.6667"
   viewBox="0 0 2666.6667 2666.6667"
   sodipodi:docname="vecteezy_root-logo-icon-design-vector_8326059.eps"
   xmlns:inkscape="http://www.inkscape.org/namespaces/inkscape"
   xmlns:sodipodi="http://sodipodi.sourceforge.net/DTD/sodipodi-0.dtd"
   xmlns="http://www.w3.org/2000/svg"
   xmlns:svg="http://www.w3.org/2000/svg">
  <defs
     id="defs6" />
  <sodipodi:namedview
     id="namedview4"
     pagecolor="#ffffff"
     bordercolor="#000000"
     borderopacity="0.25"
     inkscape:showpageshadow="2"
     inkscape:pageopacity="0.0"
     inkscape:pagecheckerboard="0"
     inkscape:deskcolor="#d1d1d1" />
  <g
     id="g8"
     inkscape:groupmode="layer"
     inkscape:label="ink_ext_XXXXXX"
     transform="matrix(1.3333333,0,0,-1.3333333,0,2666.6667)">
    <g
       id="g10"
       transform="scale(0.1)">
      <path
         d="m 17530.5,11063 c -195.3,-71.9 -385.9,-102.8 -572.1,-102.8 -566.2,0 -1095.3,284.3 -1610.9,561.5 -657.9,354.2 -1336.4,718.4 -2128.4,543.2 370.1,-211.9 745.7,-515.9 875.4,-917.3 109.6,-338.8 377.2,-358.6 805.4,-362.5 338.5,-3.2 722,-6.8 932.4,-329.8 36,-54.6 20.1,-128.1 -34.4,-164.1 -20.2,-13 -42.7,-19.4 -64.9,-19.4 -38.7,0 -76.7,19 -99.6,54.2 -141.2,216.3 -416.7,219.1 -735.8,221.8 -383.6,3.6 -861.2,8.3 -1028.8,526.7 -130.1,402.5 -582.1,701.4 -970.3,891.6 0,0 0,0 -0.4,0 -418.8,-173.2 -843.8,-170 -1261.7,9.9 -590.7,254.2 -1077.1,820 -1430.6,1359.7 9.9,-157.3 17.4,-316.7 21,-474.4 v -0.4 c 83,-369.3 243.2,-701.1 528.2,-908.2 84.7,-62.1 181.1,-112.7 289.5,-149.9 119.8,-41.5 234.4,-80.3 344,-117.4 22.9,-7.9 45.4,-15.5 68,-23 1241.1,-420.7 1870.6,-649.2 2233.1,-1631 342.1,-925.6 1217.9,-780.9 1255,-774.5 64.5,11.4 126.2,-31.7 137.6,-96.1 11.5,-64.5 -31.6,-126.2 -96.1,-137.6 -2.7,-0.4 -73.1,-11.9 -183.8,-11.9 -332.5,0 -1027.6,105.6 -1335.3,937.9 -284.6,770.6 -749.2,1020.9 -1675.2,1347.1 229.3,-300.1 389,-658.7 290.6,-1023.7 -21,-78.3 -39.2,-148.6 -53.4,-213.1 -45.1,-202 -55.4,-346.4 -17.8,-487.9 57.7,-219.4 229.3,-433 561.1,-846.1 56.1,-70 116.6,-145.6 181.8,-227.4 501,-629.9 610.5,-1050.5 615.3,-1291.7 1.6,-75.2 -59.3,-134.9 -134.1,-124.6 -59.7,8.3 -103.2,57.7 -103.9,114.7 -2.8,178.3 -83.9,551.5 -563.1,1154.1 -64.8,81.5 -124.9,156.6 -181.1,226.2 -213.5,266.1 -369.3,460.2 -472.9,633 -34.8,-209.2 -37.5,-452.3 33.6,-708.9 105.6,-380.4 22.6,-645.7 -65.2,-926.4 -111.1,-356.3 -226.6,-724.8 1.6,-1440.8 19.7,-62.5 -14.6,-129.3 -77.1,-149.1 -11.9,-3.6 -24.1,-5.5 -36,-5.5 -50.2,0 -96.9,32 -113.1,82.6 -250.7,787.6 -118.6,1210.3 -1.6,1583.6 83.5,267.6 149.5,479.2 62.5,791.9 -126.1,455.1 -52.6,866.7 46.3,1155 0,0 0,0 0,0.4 -32.1,197.3 0.4,418.3 87.7,741.7 108.4,400.9 -209.9,820.9 -523.1,1120.5 -115.4,39.2 -236,80.3 -362.5,123.4 -348,119.4 -588,346.4 -750.5,629.1 -18.6,-302.1 -59.7,-578.5 -132.1,-799.9 -7.5,-22.9 -14.6,-45.5 -21.3,-67.6 0,0 0,0 0,-0.4 260.2,-202 818.5,-630.6 799.9,-1305.2 -22.2,-793.9 -0.4,-973.9 298.1,-1252.2 47.8,-45.1 50.2,-119.8 5.5,-167.7 -23.3,-25.3 -54.9,-37.9 -86.5,-37.9 -28.9,0 -58.2,10.7 -81.1,32 -383.1,357.5 -395,647.3 -373.3,1432.1 13.9,495.1 -379.5,850.5 -626.66,1047.8 -56.15,-277.1 -54.56,-510.8 -25.3,-733.8 11.46,-89.4 27.26,-177.2 45.86,-265.3 16.6,-81.1 35.6,-162.1 55,-245.6 71.9,-308.4 153,-658.3 154.2,-1105.9 0.4,-258.2 -41.2,-485.9 -100.1,-698.3 258.2,-144.3 590,-440 572.2,-916.9 -19.8,-537.3 331.3,-816.5 334.9,-819.2 51.4,-40.4 60.9,-114.7 20.5,-166.5 -23.3,-30 -58.1,-45.8 -93.7,-45.8 -25.3,0 -51,8.3 -72.7,24.9 -18.2,14.2 -450.4,358.2 -425.9,1015.3 12.7,346.4 -224.2,559.9 -408.8,673 -28.1,-82.7 -57.74,-163.7 -87,-244 -187.41,-512.4 -349.13,-955.2 -27.67,-1587.9 29.65,-58.1 6.32,-129.7 -51.8,-159.3 -17.4,-8.7 -35.58,-13.1 -53.78,-13.1 -43.09,0 -85,23.8 -105.96,65.3 -368.1,724.3 -181.49,1235.6 16.21,1776.5 32.03,87.4 64.45,175.9 94.5,266.5 24.91,73.9 48.24,149.8 68.4,227.3 50.22,186.3 83.83,384 83.43,601.8 -1.18,420.7 -75.92,741.8 -147.87,1052.6 -9.89,42.3 -19.77,84.2 -29.27,126.1 -224.18,-207.6 -466.95,-511.3 -456.28,-901.9 22.14,-785.3 9.89,-1075.1 -372.85,-1432.5 -22.93,-21.4 -52.19,-31.6 -81.05,-31.6 -31.64,0 -63.27,12.6 -86.99,37.5 -44.29,47.9 -41.91,123 5.93,167.7 298.52,278.3 319.86,458.2 298.13,1252.2 -15.43,555.5 360.19,943.8 638.55,1176.7 -54.96,314.7 -71.57,649.2 34.79,1075 17.41,69.2 37.97,141.2 62.08,215.5 h 0.4 c 0.39,2.4 1.18,4.4 1.97,6.8 104.79,319.8 137.6,772.1 131.67,1253.3 -131.67,-516.7 -412,-969.1 -958.03,-1156.5 -126.53,-43.1 -247.12,-84.2 -362.58,-123.4 -270.45,-258.9 -545.25,-607.3 -545.25,-956 0,-55 7.12,-109.9 21.75,-164.5 87.77,-323.8 120.2,-544.8 88.56,-741.7 v -0.4 c 98.46,-288.3 172,-699.9 45.48,-1155 -86.98,-312.7 -20.96,-524.3 62.86,-791.9 116.64,-373.3 248.71,-796 -1.98,-1583.6 -15.81,-50.6 -62.46,-82.6 -112.68,-82.6 -12.26,0 -24.12,1.9 -35.98,5.5 -62.47,19.8 -97.26,86.6 -77.1,149.1 227.74,716 112.69,1084.5 1.58,1440.8 -88.17,280.7 -170.81,546 -65.24,926.4 71.17,256.2 68.01,499.7 33.61,708.9 -103.59,-172.8 -259.38,-366.9 -472.89,-633 -56.15,-69.6 -116.64,-144.7 -181.48,-226.2 -456.68,-574.5 -551.57,-940.2 -561.07,-1128.4 -2.37,-45.1 -31.24,-84.2 -72.35,-101.6 -81.06,-34.4 -170.81,27.2 -166.47,115 13.05,245.2 132.86,657.2 614.44,1262.5 64.85,81.8 125.74,157.4 181.88,227.4 331.75,413.5 503.34,627 561.06,846.1 v 0.4 c 37.57,141.6 27.28,285.9 -17.79,487.5 -14.23,64.5 -32.42,134.8 -53.37,213.1 -98.46,365 61.28,723.6 290.61,1023.7 C 7282.7,10970.1 6818.12,10719.8 6533.03,9949.2 6225.42,9116.9 5530.32,9011.3 5197.8,9011.3 c -110.32,0 -180.7,11.5 -183.87,11.9 -64.44,11.4 -107.15,73.1 -95.68,137.6 11.47,64.4 73.16,107.5 137.6,96.1 36.77,-6.4 914.54,-145.9 1254.58,774.5 362.97,981.8 992.44,1210.3 2233.57,1631 22.15,7.5 44.69,15.1 67.61,23 109.92,37.1 224.58,75.9 344.4,117.4 108.32,37.2 204.81,87.8 289.42,149.9 424.25,308 571.73,892 600.99,1463.7 -357.42,-563 -862.34,-1173.5 -1482.72,-1440.4 -413.58,-177.9 -833.48,-183.1 -1248.25,-15.4 -23.33,9.5 -46.66,18.6 -69.98,26.8 -372.85,-204.4 -791.98,-512.8 -903.87,-907 -149.46,-524.3 -626.3,-545.6 -1009.44,-563 -319.09,-14.3 -594.28,-26.5 -727.92,-247.9 -22.14,-37.2 -61.29,-57.4 -101.62,-57.4 -20.95,0 -41.9,5.2 -60.89,17 -56.14,33.6 -74.33,106.4 -40.32,162.5 198.87,330.6 582.01,347.6 920.07,363 427.42,19 694.31,48.3 791.58,390.7 112.29,395.4 461.81,706.9 814.91,930.7 -769.44,147.9 -1431.72,-208.4 -2075.02,-554.3 -515.6,-277.2 -1044.63,-561.5 -1610.83,-561.5 -187.82,0 -379.59,31.3 -576.49,104.4 -61.29,22.9 -92.53,91.3 -69.99,152.6 22.94,61.3 91.34,92.5 152.63,70 689.96,-256.6 1322.59,83.4 1991.99,443.6 716.05,384.8 1521.86,818.1 2484.25,514.8 59.31,-18.5 119.41,-40.3 180.3,-64.8 44.68,-18.2 89.76,-34 134.83,-47.5 309.59,-92.1 621.95,-71.9 930.36,60.5 687.58,295.8 1237.18,1084.2 1577.22,1691.5 v 0.4 l 152.62,314.4 161.36,-328.2 c 340.4,-605.8 887.6,-1384.7 1569.3,-1678.1 278.7,-119.8 560.6,-147.8 840.6,-83.8 75.1,17 149.8,40.4 224.6,70.8 38.3,15.4 76.7,30 114.6,43.1 991.7,344.8 1817.7,-99.6 2549.5,-493.1 669.8,-360.2 1302,-700.2 1992.4,-443.6 63.3,23.7 133.6,-10.7 154.2,-75.9 19.4,-60.5 -16.6,-126.1 -75.9,-148.3"
         style="fill:#ffffff;fill-opacity:1;fill-rule:nonzero;stroke:none"
         id="path12" />
    </g>
  </g>
</svg>
